<svg fill='none' height='30' viewBox='0 0 30 30' width='30'
        xmlns='http://www.w3.org/2000/svg'>
    <path id='telegram' d='M20.303 2.984a2.437 2.437 0 0 0-.787.188c-.216.085-.988.41-2.22.926l-4.599 1.931C9.221 7.491 5.314 9.136 3.313 9.98c-.07.028-.348.114-.657.35-.309.235-.652.747-.652 1.308 0 .452.226.912.498 1.175.272.264.548.387.78.479v-.002c.78.31 3.109 1.243 3.663 1.465.197.59 1.042 3.113 1.242 3.748h-.001c.142.45.28.742.472.986a1.168 1.168 0 0 0 .526.405l.025.007-.023-.005c.017.007.033.017.05.023.03.01.05.01.088.018.137.042.274.07.4.07.544 0 .878-.295.878-.295l.021-.016 2.348-1.986 2.875 2.66c.052.074.464.631 1.416.631.568 0 1.017-.281 1.304-.576.288-.295.467-.597.547-1.006l.002-.002c.064-.33 2.817-14.15 2.817-14.15l-.006.023c.085-.382.11-.752.01-1.129a1.62 1.62 0 0 0-.704-.937 1.65 1.65 0 0 0-.93-.239zm-.395 2.19c-.109.546-2.574 12.932-2.726 13.709l-4.153-3.842-2.806 2.373.777-3.039s5.363-5.428 5.686-5.744c.26-.253.314-.342.314-.43 0-.117-.06-.201-.2-.201-.124 0-.294.12-.384.176-1.144.713-6.015 3.489-8.41 4.851-.144-.057-2.309-.927-3.475-1.392a44934.035 44934.035 0 0 1 13.54-5.694c1.037-.435 1.579-.66 1.837-.767zm-2.756 13.851h.002l-.002.006c.002-.006 0 0 0-.006z'
          fill='currentColor'></path>
    <path id='codeWars'
          d='M6 3a3 3 0 0 0-3 3v13a2 2 0 0 0 2 2h13a3 3 0 0 0 3-3V6a3 3 0 0 0-3-3H6zm5.564 3.016a2.9 2.9 0 0 1 .438 0c.909.046 1.742.54 2.22 1.228.034 0 .066-.006.1-.006 1.2-.01 2.36.723 2.862 1.77.414.81.403 1.779.046 2.539.017.029.04.054.055.084.61 1.034.554 2.403-.101 3.361a2.936 2.936 0 0 1-2.176 1.31c-.016.03-.028.06-.045.089-.591 1.045-1.807 1.681-2.965 1.593a2.929 2.929 0 0 1-2.22-1.228c-.034 0-.066.006-.1.006-1.2.01-2.36-.723-2.862-1.77a2.935 2.935 0 0 1-.046-2.539c-.017-.029-.04-.054-.055-.084-.61-1.034-.555-2.403.101-3.361a2.936 2.936 0 0 1 2.176-1.31c.016-.03.028-.06.045-.089.517-.914 1.511-1.516 2.527-1.593zM12 7.268c-.715.084-1.348.488-1.674 1.087a2.195 2.195 0 0 0-.08 1.977c.203.457.575.85 1.065 1.127l.03-.035a2.896 2.896 0 0 1 .095-2.43c.342-.708.98-1.259 1.724-1.543A2.364 2.364 0 0 0 12 7.268zM8.64 8.723a2.37 2.37 0 0 0-.738.912c-.285.662-.252 1.41.104 1.992.34.58.969.989 1.674 1.057.497.053 1.02-.072 1.506-.356-.006-.016-.018-.03-.024-.047a2.895 2.895 0 0 1-2.047-1.295c-.442-.65-.6-1.476-.474-2.263zm5.68.006a2.195 2.195 0 0 0-1.752.92c-.293.4-.445.911-.443 1.468.017.002.034.014.05.018a2.894 2.894 0 0 1 2.145-1.127c.784-.058 1.58.22 2.2.722a2.373 2.373 0 0 0-.42-1.095c-.431-.577-1.097-.923-1.78-.906zm-.377 2.58c-.38.025-.765.15-1.129.363.007.016.018.03.024.047a2.895 2.895 0 0 1 2.047 1.295c.442.65.6 1.476.474 2.263.328-.25.584-.562.739-.912.285-.662.252-1.41-.104-1.992a2.198 2.198 0 0 0-1.674-1.057 2.167 2.167 0 0 0-.377-.007zM12.69 12.54l-.03.035c.312.74.308 1.662-.095 2.43-.342.708-.98 1.259-1.724 1.543.38.159.778.224 1.158.183.715-.084 1.35-.488 1.676-1.087a2.195 2.195 0 0 0 .078-1.977c-.202-.457-.573-.85-1.063-1.127zm-.865.324a2.894 2.894 0 0 1-2.144 1.127c-.784.058-1.58-.22-2.2-.722.053.409.195.786.42 1.095.431.577 1.096.923 1.778.906a2.197 2.197 0 0 0 1.754-.92c.293-.4.445-.911.443-1.468-.017-.002-.034-.014-.05-.018z'
          fill='currentColor'></path>

    <path id='email1'
          d='M6.6 11.8c-1.5 1.8-1.1 2.2 10.9 9.6 7.5 4.7 13 7.5 13.7 7 .7-.4 6.4-3.8 12.6-7.7 10.8-6.7 11.2-7 9.6-8.8C51.8 10.2 49.9 10 30 10c-19.8 0-21.8.2-23.4 1.8z'
          fill='currentColor'></path>
    <path id='email2'
          d='M5 33.3c0 11 .3 13.9 1.6 15.1 2.3 2.4 44.5 2.4 46.8 0 1.3-1.2 1.6-4.1 1.6-15 0-7.4-.2-13.4-.5-13.4s-5.9 3.4-12.5 7.5L30 35l-11.2-7.1C12.6 24 7 20.5 6.3 20.3c-1-.4-1.3 2.5-1.3 13z'
          fill='currentColor'></path>
    <path id='linkedIn'
            fill="currentColor"
            d="M15 .6C7.047.6.6 7.047.6 15S7.047 29.4 15 29.4 29.4 22.953 29.4 15 22.953.6 15 .6Zm-3.525 20.37H8.56v-9.384h2.916v9.384ZM10 10.433c-.92 0-1.516-.653-1.516-1.46 0-.823.613-1.456 1.554-1.456.94 0 1.516.633 1.534 1.456 0 .807-.594 1.46-1.572 1.46Zm12.126 10.536H19.21v-5.2c0-1.211-.423-2.033-1.477-2.033-.806 0-1.284.556-1.496 1.092-.078.19-.097.46-.097.729v5.41h-2.92v-6.39c0-1.171-.037-2.15-.076-2.994h2.533l.134 1.304h.058c.384-.612 1.325-1.515 2.898-1.515 1.919 0 3.357 1.285 3.357 4.048v5.549Z"
    />
    <path id='gitHub'
            fill="currentColor"
            d="M15 0C6.713 0 0 6.713 0 15c0 6.637 4.294 12.244 10.256 14.231.75.131 1.031-.319 1.031-.712 0-.356-.018-1.538-.018-2.794-3.769.694-4.744-.919-5.044-1.763-.169-.43-.9-1.762-1.537-2.118-.526-.282-1.275-.975-.02-.994 1.182-.019 2.026 1.087 2.307 1.537 1.35 2.27 3.506 1.632 4.369 1.238.131-.975.525-1.631.956-2.006-3.338-.375-6.825-1.669-6.825-7.406 0-1.632.581-2.982 1.538-4.032-.15-.375-.675-1.912.15-3.975 0 0 1.256-.394 4.124 1.538 1.2-.338 2.475-.506 3.75-.506s2.55.168 3.75.506c2.87-1.95 4.126-1.538 4.126-1.538.825 2.063.3 3.6.15 3.975.956 1.05 1.537 2.382 1.537 4.032 0 5.756-3.506 7.03-6.844 7.406.544.468 1.013 1.369 1.013 2.775 0 2.006-.019 3.619-.019 4.125 0 .394.281.862 1.031.712A15.025 15.025 0 0 0 30 15c0-8.287-6.712-15-15-15Z"
    />
    <path id='x'
            fill="currentColor"
            d="M15.875.875c-8.283 0-15 6.717-15 15 0 8.284 6.717 15 15 15 8.284 0 15-6.716 15-15 0-8.283-6.716-15-15-15Zm7.209 11.307c.01.157.01.321.01.482 0 4.915-3.744 10.577-10.584 10.577a10.55 10.55 0 0 1-5.712-1.667c.301.033.59.046.897.046a7.46 7.46 0 0 0 4.617-1.587 3.72 3.72 0 0 1-3.475-2.578c.573.084 1.088.084 1.678-.067a3.717 3.717 0 0 1-2.977-3.65v-.046a3.722 3.722 0 0 0 1.677.472 3.722 3.722 0 0 1-1.151-4.969 10.555 10.555 0 0 0 7.667 3.888c-.526-2.528 1.363-4.574 3.633-4.574a3.71 3.71 0 0 1 2.715 1.172 7.346 7.346 0 0 0 2.36-.894 3.701 3.701 0 0 1-1.633 2.046 7.357 7.357 0 0 0 2.143-.58 7.793 7.793 0 0 1-1.865 1.929Z"
    />
</svg>